<?xml version="1.0" standalone="no"?>
<!DOCTYPE svg PUBLIC "-//W3C//DTD SVG 20010904//EN"
 "http://www.w3.org/TR/2001/REC-SVG-20010904/DTD/svg10.dtd">
<svg version="1.0" xmlns="http://www.w3.org/2000/svg"
 width="512.000000pt" height="512.000000pt" viewBox="0 0 512.000000 512.000000"
 preserveAspectRatio="xMidYMid meet">

<defs>
    <linearGradient id="lgrad" x1="0%" y1="50%" x2="100%" y2="50%" >
        <stop offset="0%" style="stop-color:rgb(207,10,181);stop-opacity:1.00" />
        <stop offset="50%" style="stop-color:rgb(2,107,120);stop-opacity:1.00" />
        <stop offset="100%" style="stop-color:rgb(12,71,207);stop-opacity:1.00" />
    </linearGradient>
</defs>

<g transform="translate(0.000000,512.000000) scale(0.100000,-0.100000)"
fill="#000000" stroke="none">
<path fill="url(#lgrad)" d="M2430 5114 c-272 -32 -416 -74 -631 -186 -652 -336 -1011 -1105 -834
-1788 50 -194 113 -342 350 -829 305 -628 387 -869 410 -1206 4 -55 14 -116
22 -135 18 -43 56 -85 94 -100 24 -10 27 -15 18 -37 -20 -53 -1 -133 43 -180
l21 -22 -26 -30 c-57 -68 -60 -154 -7 -228 l31 -44 -25 -29 c-72 -87 -54 -205
42 -271 l36 -24 586 0 586 0 36 24 c96 66 114 184 42 271 l-25 29 31 44 c53
74 50 160 -7 228 l-26 30 21 22 c44 47 63 127 43 180 -9 22 -6 27 18 37 38 15
76 57 94 100 8 19 18 80 22 135 23 338 104 576 410 1205 196 403 249 521 300
670 69 199 95 338 95 504 0 736 -503 1387 -1221 1579 -52 14 -128 31 -169 37
-80 12 -322 21 -380 14z m345 -410 c381 -66 715 -312 892 -660 94 -185 136
-353 136 -554 0 -130 -17 -222 -67 -369 -49 -143 -70 -190 -286 -636 -255
-528 -341 -743 -399 -1000 -18 -78 -41 -205 -41 -227 0 -5 -202 -8 -450 -8
-247 0 -450 3 -450 8 0 22 -23 149 -41 227 -58 257 -144 472 -399 1000 -253
524 -296 627 -336 811 -21 101 -22 280 -1 399 61 346 283 669 582 847 136 81
279 136 420 161 110 20 329 21 440 1z"/>
<path fill="url(#lgrad)" d="M2689 3866 c-14 -8 -31 -27 -38 -42 -24 -53 -353 -1199 -354 -1236
-2 -41 20 -72 61 -86 40 -13 89 4 106 36 22 44 358 1210 359 1248 2 65 -77
111 -134 80z"/>
<path fill="url(#lgrad)" d="M2058 3513 c-180 -146 -318 -265 -328 -283 -11 -21 -13 -60 -4 -85 7
-17 325 -286 392 -331 41 -28 53 -29 98 -8 22 11 37 27 44 50 18 54 -6 87
-160 213 -77 63 -137 117 -134 120 3 4 67 58 142 121 75 64 143 128 150 143
28 58 -23 127 -92 127 -16 0 -55 -24 -108 -67z"/>
<path fill="url(#lgrad)" d="M2898 3565 c-36 -20 -54 -75 -36 -112 7 -15 75 -79 150 -143 75 -63
139 -117 142 -121 3 -3 -57 -57 -134 -120 -154 -126 -178 -159 -160 -213 7
-23 22 -39 44 -50 45 -21 57 -20 98 8 67 45 385 314 392 331 9 25 7 64 -4 85
-10 18 -148 137 -328 283 -88 71 -113 79 -164 52z"/>
</g>
</svg>
